<?xml version="1.0" encoding="utf-8"?>
<!-- Generator: Adobe Illustrator 27.6.1, SVG Export Plug-In . SVG Version: 6.00 Build 0)  -->
<svg version="1.1" id="Layer_1" xmlns="http://www.w3.org/2000/svg" xmlns:xlink="http://www.w3.org/1999/xlink" x="0px" y="0px"
	 viewBox="0 0 514.3 385" style="enable-background:new 0 0 514.3 385;" xml:space="preserve">
<style type="text/css">
	.st0{stroke:#231F20;stroke-width:12;}
</style>
<path class="st0" d="M209.5,379c-30.6,0-61.3,0-91.9,0c-13.3,0-19.6-1.2-23.9-4.1c-3.7-3-6.7-7.6-8.8-14.6l0,0
	c-9-29.4-28.8-49.4-58.5-58.5c-7.6-2.4-12.4-5.4-15.4-9.1c-2.9-3.7-4.7-8.7-4.7-16.4l0,0c-0.4-55.2-0.4-110.4,0-165.6l0,0
	c0-7.2,1.7-12.2,4.5-15.9c2.9-3.7,7.5-6.7,14.6-8.9l0,0c29.1-9,48.2-28.5,58.6-56.5l0,0c3.9-10.4,7.2-15.6,11.3-18.6
	c4.1-3,10.1-4.4,21.3-4.5l0,0C150.5,6,184.3,6,218.2,6c13.6,0,73.3,0,86.6,0c30.6,0,61.3,0,91.9,0c13.3,0.1,19.6,1.2,23.8,4.2
	c3.7,3,6.7,7.6,8.8,14.6l0,0c9.1,29.4,28.8,49.3,58.5,58.5c7.6,2.4,12.4,5.4,15.4,9.1c2.9,3.6,4.6,8.7,4.7,16.4l0,0
	c0.4,55.2,0.3,110.4,0,165.6l0,0c0,7.2-1.7,12.2-4.5,15.9c-2.9,3.7-7.4,6.7-14.6,8.9l0,0c-29.1,9.1-48.2,28.6-58.6,56.5l0,0
	c-3.8,10.4-7.1,15.6-11.3,18.6c-4.1,3-10.1,4.4-21.3,4.5l0,0c-33.8,0.2-67.6,0.1-101.5,0.1C282.5,378.9,222.8,379,209.5,379z"/>
</svg>
