<svg width="180" height="100" viewBox="0 0 180 100" fill="none" xmlns="http://www.w3.org/2000/svg">
<path d="M88.299 0.939922C90.109 1.29992 91.679 1.54992 93.199 2.02992C101.309 4.57992 107.469 9.58992 111.909 16.7799C113.139 18.7799 113.089 18.7499 114.399 16.7899C118.939 10.0499 124.939 5.07992 132.959 3.32992C143.919 0.939924 153.429 3.93992 161.289 12.0499C165.199 16.0899 167.639 20.8799 168.779 26.3399C170.319 33.7399 169.209 40.7199 165.379 47.2599C164.829 48.2099 164.099 48.9999 163.419 49.8399C162.149 51.3999 162.249 51.9999 163.859 53.0999C170.499 57.6199 174.889 63.9099 177.859 71.2199C180.779 78.4399 178.879 84.8799 174.089 90.6099C169.829 95.6899 164.229 98.3299 157.709 99.2899C150.139 100.4 142.809 99.3499 135.489 97.4899C131.279 96.4199 127.179 95.0699 123.119 93.5799C118.759 91.9799 114.629 89.9299 110.799 87.2999C110.559 87.1299 110.319 86.9599 110.069 86.8099C108.539 85.9199 108.129 85.9799 106.989 87.3099C102.769 92.2299 97.499 95.5899 91.319 97.3299C82.789 99.7299 74.589 98.7099 66.849 94.2799C63.819 92.5499 61.099 90.4699 58.709 87.9299C57.649 86.7999 57.619 86.8699 56.809 88.1299C55.459 90.2099 53.389 91.5499 51.409 92.8899C48.669 94.7399 45.569 95.9399 42.369 96.7399C37.889 97.8699 33.379 97.9499 28.789 97.2199C24.059 96.4599 19.459 95.2599 15.209 93.1399C8.12903 89.5999 2.50903 84.6299 1.13903 76.2899C-0.0209718 69.2699 1.69903 62.8399 5.43903 56.8599C7.43903 53.6499 9.94903 50.8799 12.729 48.3499C13.579 47.5699 13.839 46.7599 13.709 45.5899C11.959 30.4099 22.599 17.1199 36.609 15.0099C43.199 14.0199 49.179 14.9899 54.679 18.7299C55.719 19.4299 56.009 18.6699 56.319 17.9899C57.389 15.6499 58.889 13.6099 60.619 11.7299C65.789 6.12992 71.879 2.13992 79.609 1.07992C79.849 1.04992 80.089 0.979921 80.509 0.879921C84.229 0.419921 81.909 0.709922 84.229 0.419922" fill="white"/>
<path d="M88.299 0.939922C90.109 1.29992 91.679 1.54992 93.199 2.02992C101.309 4.57992 107.469 9.58992 111.909 16.7799C113.139 18.7799 113.089 18.7499 114.399 16.7899C118.939 10.0499 124.939 5.07992 132.959 3.32992C143.919 0.939924 153.429 3.93992 161.289 12.0499C165.199 16.0899 167.639 20.8799 168.779 26.3399C170.319 33.7399 169.209 40.7199 165.379 47.2599C164.829 48.2099 164.099 48.9999 163.419 49.8399C162.149 51.3999 162.249 51.9999 163.859 53.0999C170.499 57.6199 174.889 63.9099 177.859 71.2199C180.779 78.4399 178.879 84.8799 174.089 90.6099C169.829 95.6899 164.229 98.3299 157.709 99.2899C150.139 100.4 142.809 99.3499 135.489 97.4899C131.279 96.4199 127.179 95.0699 123.119 93.5799C118.759 91.9799 114.629 89.9299 110.799 87.2999C110.559 87.1299 110.319 86.9599 110.069 86.8099C108.539 85.9199 108.129 85.9799 106.989 87.3099C102.769 92.2299 97.499 95.5899 91.319 97.3299C82.789 99.7299 74.589 98.7099 66.849 94.2799C63.819 92.5499 61.099 90.4699 58.709 87.9299C57.649 86.7999 57.619 86.8699 56.809 88.1299C55.459 90.2099 53.389 91.5499 51.409 92.8899C48.669 94.7399 45.569 95.9399 42.369 96.7399C37.889 97.8699 33.379 97.9499 28.789 97.2199C24.059 96.4599 19.459 95.2599 15.209 93.1399C8.12903 89.5999 2.50903 84.6299 1.13903 76.2899C-0.0209718 69.2699 1.69903 62.8399 5.43903 56.8599C7.43903 53.6499 9.94903 50.8799 12.729 48.3499C13.579 47.5699 13.839 46.7599 13.709 45.5899C11.959 30.4099 22.599 17.1199 36.609 15.0099C43.199 14.0199 49.179 14.9899 54.679 18.7299C55.719 19.4299 56.009 18.6699 56.319 17.9899C57.389 15.6499 58.889 13.6099 60.619 11.7299C65.789 6.12992 71.879 2.13992 79.609 1.07992C79.849 1.04992 80.089 0.979921 80.509 0.879921C84.229 0.419921 81.909 0.709922 84.229 0.419922M164.659 32.8199C164.659 31.4499 164.919 30.0099 164.609 28.7099C163.939 25.9099 163.289 23.1299 161.879 20.4899C159.049 15.1899 154.859 11.5799 149.509 9.15992C146.989 8.01992 144.369 7.86992 141.709 8.61992C139.089 9.34992 136.699 10.5199 134.349 11.9199C131.999 13.3199 129.799 14.8499 127.829 16.6999C123.909 20.3799 120.259 24.3199 117.139 28.7199C116.579 29.4999 115.949 30.2299 115.139 30.7699C113.579 31.8099 111.879 31.0599 111.569 29.2399C111.449 28.5399 111.389 27.8299 111.229 27.1499C108.919 17.5099 102.879 11.0799 93.959 7.13992C93.479 6.92992 92.989 6.92992 92.489 7.00992C88.159 7.70992 83.959 8.77992 79.969 10.7099C72.459 14.3499 66.239 19.4399 61.519 26.3599C60.269 28.1899 59.339 30.1899 58.149 32.0399C57.649 32.8099 56.929 33.3199 55.929 33.1099C54.889 32.8899 54.439 32.1499 54.299 31.1399C54.059 29.3699 53.699 27.5999 53.589 25.8199C53.449 23.4999 52.289 22.0499 50.209 21.1899C47.649 20.1299 45.029 19.3999 42.229 19.4699C36.239 19.6099 37.759 18.6499 33.149 23.2799C28.449 27.9999 24.759 33.2799 23.849 40.1199C23.729 40.9999 23.809 41.4599 24.689 41.6899C24.959 41.7599 25.219 41.9299 25.459 42.0899C26.149 42.5599 26.969 43.0399 26.859 43.9999C26.749 44.9499 26.109 45.6499 25.229 46.0699C24.099 46.6099 22.959 47.1199 21.839 47.6699C21.429 47.8699 20.999 48.0899 20.699 48.4199C18.079 51.3099 15.879 54.4599 14.469 58.1399C13.089 61.7399 13.129 65.4399 13.109 69.1999C13.099 72.1299 13.489 74.8999 14.519 77.6299C14.949 78.7699 15.569 79.7999 16.089 80.8899C18.459 85.8399 22.169 89.4699 27.019 91.9799C27.799 92.3899 28.619 92.6199 29.519 92.6999C32.349 92.9599 35.179 92.8899 38.009 92.7799C39.329 92.7299 40.629 92.5399 41.939 92.1799C45.919 91.0899 49.409 89.1399 52.389 86.3399C53.839 84.9799 55.059 83.3699 54.859 81.1199C54.779 80.2499 54.679 79.3999 54.439 78.5499C53.969 76.8099 55.379 75.1399 57.059 75.3599C58.149 75.4999 58.449 76.4699 58.929 77.2099C60.749 80.0099 62.619 82.7799 65.169 84.9499C67.419 86.8599 69.749 88.7199 72.379 90.0899C77.209 92.6099 82.029 94.6999 87.839 93.4499C95.069 91.8899 100.619 88.0499 105.219 82.4999C105.779 81.8299 105.849 81.1199 105.519 80.2899C105.009 79.0099 104.599 77.6999 104.129 76.4099C103.859 75.6499 103.709 74.8799 103.859 74.0799C104.119 72.7799 105.269 72.1599 106.479 72.6799C107.329 73.0399 108.129 73.4699 108.759 74.1699C110.599 76.2299 112.729 77.9999 114.919 79.6399C122.409 85.2799 130.479 89.9099 139.439 92.8399C141.299 93.4499 143.059 94.4399 145.019 94.6199C148.239 94.9199 151.469 95.0599 154.719 94.8899C159.649 94.6299 164.039 93.1099 168.069 90.2299C173.859 86.0899 175.919 78.2899 173.229 71.7399C171.359 67.1899 168.439 63.3499 165.029 59.8999C162.839 57.6799 160.439 55.6199 157.009 55.4999C156.099 55.4699 155.209 55.1499 154.309 55.0599C152.969 54.9299 152.729 53.9899 152.669 52.9499C152.599 51.8399 153.189 51.0999 154.269 50.8999C155.289 50.7199 156.139 50.2299 156.999 49.7199C159.229 48.3999 160.759 46.3999 161.939 44.1999C163.839 40.6699 165.029 36.9199 164.649 32.8199H164.659Z" fill="#202020"/>
</svg>
