<svg width="220" height="220" viewBox="0 0 220 220" fill="none" xmlns="http://www.w3.org/2000/svg">
<rect x="3.4375" y="3.4375" width="213.125" height="213.125" rx="106.562" fill="#F9F5ED"/>
<circle cx="103.125" cy="84.2188" r="27.5" stroke="#231F20" stroke-width="3.4375"/>
<circle cx="103.125" cy="84.2188" r="17.1875" stroke="#231F20" stroke-width="3.4375"/>
<path d="M136.882 113.596L137.347 114.988L138.795 114.746C139.132 114.69 139.474 114.66 139.82 114.66C143.267 114.66 146.094 117.49 146.094 121.02V138.971C146.094 139.25 146.075 139.528 146.038 139.803L146.032 139.854L146.028 139.906C145.097 153.015 134.934 163.281 121.172 163.281C107.425 163.281 96.25 152.012 96.25 138.073C96.25 137.892 96.2532 137.706 96.2568 137.505L96.2576 137.46L96.2559 137.414C96.2523 137.31 96.25 137.241 96.25 137.175V92.2974C96.25 88.7677 99.0764 85.9375 102.524 85.9375C105.971 85.9375 108.796 88.7672 108.796 92.2974V112.045H110.515H112.234C112.234 108.516 115.06 105.685 118.508 105.685C121.204 105.685 123.518 107.411 124.401 109.858L125.212 112.105L127.085 110.621C128.151 109.777 129.488 109.276 130.941 109.276C133.687 109.276 136.039 111.072 136.882 113.596Z" fill="#F49AA6" stroke="#231F20" stroke-width="3.4375" stroke-miterlimit="10"/>
<rect x="3.4375" y="3.4375" width="213.125" height="213.125" rx="106.562" stroke="#231F20" stroke-width="6.875"/>
</svg>
