<svg width="37" height="37" viewBox="0 0 37 37" fill="none" xmlns="http://www.w3.org/2000/svg">
<path d="M15.2791 4.41988C15.967 1.37436 20.3064 1.37436 20.9944 4.41988L21.0767 4.7845C21.5226 6.7583 23.7876 7.69652 25.4986 6.61609L25.8146 6.41651C28.4546 4.74944 31.523 7.81787 29.8559 10.4578L29.6564 10.7739C28.5759 12.4848 29.5142 14.7499 31.488 15.1957L31.8526 15.2781C34.8981 15.966 34.8981 20.3054 31.8526 20.9934L31.488 21.0757C29.5142 21.5216 28.5759 23.7866 29.6564 25.4976L29.8559 25.8137C31.523 28.4536 28.4546 31.522 25.8146 29.855L25.4986 29.6554C23.7876 28.575 21.5226 29.5132 21.0767 31.487L20.9944 31.8516C20.3064 34.8971 15.967 34.8971 15.2791 31.8516L15.1967 31.487C14.7509 29.5132 12.4858 28.575 10.7749 29.6554L10.4588 29.855C7.81885 31.522 4.75042 28.4536 6.41749 25.8137L6.61707 25.4976C7.69749 23.7866 6.75928 21.5216 4.78547 21.0757L4.42086 20.9934C1.37534 20.3054 1.37534 15.966 4.42086 15.2781L4.78547 15.1957C6.75928 14.7499 7.69749 12.4848 6.61707 10.7739L6.41749 10.4578C4.75042 7.81787 7.81885 4.74945 10.4588 6.41651L10.7749 6.61609C12.4858 7.69652 14.7509 6.7583 15.1967 4.78449L15.2791 4.41988Z" fill="#231F20"/>
<path fill-rule="evenodd" clip-rule="evenodd" d="M21.6882 23.7976C22.2741 24.3835 23.2241 24.3835 23.81 23.7976C24.3959 23.2117 24.3959 22.2617 23.81 21.6758L20.2738 18.1396L23.81 14.6035C24.3959 14.0176 24.3959 13.0676 23.81 12.4817C23.2241 11.8958 22.2741 11.8958 21.6882 12.4817L18.152 16.0179L14.6157 12.4816C14.0298 11.8957 13.0799 11.8957 12.494 12.4816C11.9081 13.0675 11.9081 14.0174 12.494 14.6034L16.0303 18.1396L12.494 21.6759C11.9081 22.2618 11.9081 23.2118 12.494 23.7977C13.0799 24.3836 14.0298 24.3836 14.6157 23.7977L18.152 20.2614L21.6882 23.7976Z" fill="#F9F5ED"/>
</svg>
