<svg width="106" height="106" viewBox="0 0 106 106" fill="none" xmlns="http://www.w3.org/2000/svg">
<rect x="3" y="3" width="100" height="100" rx="50" fill="#F9F5ED"/>
<circle cx="49.0547" cy="38.4688" r="15.6406" stroke="#231F20" stroke-width="1.65625"/>
<circle cx="49.0547" cy="38.4688" r="9.82812" stroke="#231F20" stroke-width="1.65625"/>
<path d="M68.2148 54.9822L68.439 55.6531L69.1367 55.5365C69.3337 55.5036 69.5343 55.4858 69.7372 55.4858C71.7594 55.4858 73.4141 57.1454 73.4141 59.2111V69.3289C73.4141 69.4929 73.4028 69.6557 73.3816 69.8165L73.3783 69.8412L73.3766 69.8661C72.8468 77.3244 67.0613 83.1719 59.2266 83.1719C51.3995 83.1719 45.0391 76.7559 45.0391 68.8229C45.0391 68.7194 45.0409 68.6137 45.0429 68.5006L45.0433 68.4786L45.0425 68.4567C45.0404 68.3985 45.0391 68.357 45.0391 68.317V43.0222C45.0391 40.9565 46.6937 39.2969 48.7159 39.2969C50.7379 39.2969 52.3918 40.9562 52.3918 43.0222V54.1528H53.2199H54.048C54.048 52.0871 55.7027 50.4275 57.7249 50.4275C59.3064 50.4275 60.6619 51.4399 61.1789 52.8721L61.5698 53.955L62.4722 53.24C63.0967 52.7451 63.8806 52.4512 64.7327 52.4512C66.3438 52.4512 67.7211 53.5048 68.2148 54.9822Z" fill="#F49AA6" stroke="#231F20" stroke-width="1.65625" stroke-miterlimit="10"/>
<rect x="3" y="3" width="100" height="100" rx="50" stroke="#231F20" stroke-width="6"/>
</svg>
