<svg width="64" height="64" viewBox="0 0 64 64" fill="none" xmlns="http://www.w3.org/2000/svg">
<path d="M27.5736 35.0919C27.5736 36.9586 28.2136 38.5586 29.3336 39.7853L35.147 38.0786C34.6136 37.5986 34.187 36.6919 34.187 35.8386C34.187 33.8653 35.8403 32.6919 37.707 31.3053C40.2136 29.5453 43.0936 27.4119 43.0936 22.9853C43.0936 18.0253 38.8803 14.5586 32.0003 14.5586C27.4136 14.5586 23.147 16.4253 20.3203 19.7319L24.6403 24.5853C26.2936 22.6119 28.5336 21.2786 31.2003 21.2786C34.1336 21.2786 35.3603 22.6653 35.3603 24.3186C35.3603 25.9186 33.9203 26.9319 32.267 28.1053C30.1336 29.6519 27.5736 31.4119 27.5736 35.0919ZM27.5736 46.9319C27.5736 49.2786 29.547 51.2519 31.8936 51.2519C34.2403 51.2519 36.2136 49.2786 36.2136 46.9319C36.2136 44.5853 34.2403 42.6119 31.8936 42.6119C29.547 42.6119 27.5736 44.5853 27.5736 46.9319Z" fill="#231F20"/>
</svg>
