<svg width="250" height="100" viewBox="0 0 250 100" fill="none" xmlns="http://www.w3.org/2000/svg">
<path d="M168.32 40.18C171.35 40.18 174.27 41.77 175.87 44C175.91 44.06 175.95 44.12 175.99 44.17C176.05 44.26 176.13 44.34 176.18 44.44V44.43C177.26 45.76 178.9 46.61 180.75 46.61C183.99 46.61 186.62 43.99 186.62 40.75C186.62 39.23 186.04 37.85 185.09 36.81C181.05 31.85 176.25 29 168.32 29C155.72 29 146.24 37.71 146.24 49.94C146.24 62.36 155.72 71.07 168.32 71.07C176.38 71.07 181.12 68.23 185.1 63.77H185.09C185.98 62.76 186.53 61.43 186.53 59.97C186.53 56.8 183.96 54.23 180.79 54.23C179.05 54.23 177.5 55 176.45 56.22C174.56 58.11 172.38 59.99 168.32 59.99C162.54 59.99 159.31 55.82 159.31 49.94C159.31 44.26 162.54 40.18 168.32 40.18ZM213.17 45.01C207.67 43.77 205.11 43.49 205.11 41.22C205.11 39.61 206.53 38.86 209.47 38.86C212.51 38.86 215.35 40.28 217.25 41.89L217.26 41.88C218.15 42.72 219.35 43.24 220.66 43.24C223.42 43.24 225.66 41 225.66 38.23C225.66 36.76 225.01 35.43 223.99 34.52C220.68 31.15 215.97 29 209.38 29C200.76 29 193.74 32.7 193.74 41.79C193.74 50.23 199.9 53.26 205.4 54.68C211.94 56.39 214.5 56.39 214.5 58.57C214.5 60.28 213.18 61.03 209.01 61.03C205.75 61.03 202.7 59.83 200.16 57.81L200.28 57.92C200.27 57.91 200.27 57.91 200.27 57.91C198.23 56.05 195.08 56.13 193.16 58.14C191.59 59.77 191.35 62.16 192.36 64.06C192.39 64.12 192.43 64.19 192.47 64.26C192.56 64.42 192.65 64.56 192.77 64.72C192.85 64.83 192.94 64.92 193.02 65.02C193.12 65.13 193.2 65.25 193.31 65.36C193.39 65.44 193.49 65.49 193.57 65.57C197.09 68.73 202.16 71.09 209.87 71.09C222.57 71.09 226.45 65.03 226.45 57.64C226.44 49.09 219.04 46.34 213.17 45.01ZM34.09 40.18C37.11 40.18 40.04 41.77 41.64 44C41.68 44.06 41.72 44.11 41.76 44.17C41.82 44.26 41.9 44.35 41.96 44.44V44.43C43.04 45.76 44.68 46.61 46.53 46.61C49.77 46.61 52.4 43.99 52.4 40.75C52.4 39.23 51.81 37.86 50.87 36.82C46.83 31.85 42.02 29 34.09 29C21.48 29 12 37.71 12 49.94C12 62.36 21.48 71.07 34.09 71.07C42.15 71.07 46.89 68.23 50.86 63.77H50.85C51.75 62.76 52.29 61.43 52.29 59.97C52.29 56.8 49.73 54.23 46.55 54.23C44.81 54.23 43.26 55 42.21 56.22C40.32 58.11 38.14 59.99 34.09 59.99C28.31 59.99 25.08 55.82 25.08 49.94C25.08 44.26 28.3 40.18 34.09 40.18ZM117.26 60.27C111.57 60.27 108.06 56.1 108.06 50.13C108.06 44.07 111.57 39.99 117.26 39.99C122.94 39.99 126.36 44.06 126.36 50.13C126.36 56.1 122.95 60.27 117.26 60.27ZM117.26 29C104.75 29 94.99 37.81 94.99 50.13C94.99 62.36 104.75 71.07 117.27 71.07C129.78 71.07 139.45 62.35 139.45 50.13C139.44 37.81 129.77 29 117.26 29ZM88.65 31.6C86.68 30.56 85.28 30.35 82.35 30.59C77.07 31.03 72.98 34.74 72.23 35.67V35.94C72.23 35.85 72.22 35.77 72.21 35.69H72.2V35.66C71.94 32.27 69.13 29.6 65.68 29.6C62.11 29.6 59.22 32.44 59.13 35.99V64.59C59.25 68.11 62.13 70.92 65.67 70.92C69.25 70.92 72.17 68.05 72.22 64.48V56.7C72.22 46.09 78.35 43.42 81.79 43.35C82.7 43.33 85.03 44.22 86.85 43.89C90.42 43.24 92.77 39.82 92.12 36.26C91.75 34.16 90.41 32.49 88.65 31.6Z" fill="black"/>
<path d="M229.29 31.1399V35.3499H228V31.1399H226.52V30.1299H230.78V31.1399H229.29ZM236.27 35.3499V31.6499H236.24L234.9 35.3499H234.03L232.69 31.6499H232.67V35.3499H231.45V30.1299H233.17L234.48 33.5699L235.79 30.1299H237.5V35.3499H236.27Z" fill="black"/>
</svg>
