<svg width="79" height="80" viewBox="0 0 79 80" fill="none" xmlns="http://www.w3.org/2000/svg">
<g clip-path="url(#clip0_1397_28886)">
<path d="M0.000833333 73.1801C0.000833333 60.9351 0.000833333 48.7066 0.000833333 36.4616C0.03375 36.4287 0.083125 36.3958 0.0995833 36.3464C1.20229 32.1166 3.76979 30.1416 8.14771 30.1416C14.9779 30.1416 21.8246 30.1416 28.6548 30.1416H29.6258C29.6258 29.7631 29.6258 29.4668 29.6258 29.1706C29.6258 22.1264 29.6258 15.0822 29.6258 8.05452C29.6258 5.14139 30.926 2.91952 33.4606 1.47118C34.2177 1.04327 35.1229 0.82931 35.9458 0.516602C48.1908 0.516602 60.4194 0.516602 72.6644 0.516602C72.796 0.565977 72.9442 0.63181 73.0758 0.664727C75.8079 1.32306 77.6512 2.96889 78.6058 5.60223C78.754 5.99723 78.8527 6.42514 78.9844 6.8366V73.1801C78.935 73.3447 78.8527 73.5093 78.8198 73.6739C78.1285 76.406 76.4662 78.2328 73.8165 79.1545C73.4379 79.2862 73.0429 79.3849 72.6644 79.5001H6.32083C6.15625 79.4508 5.99167 79.3685 5.82708 79.3356C3.12792 78.6608 1.30104 77.0149 0.362917 74.4145C0.214792 74.0195 0.116042 73.5916 -0.015625 73.1801H0.000833333ZM42.0848 5.43764C40.4719 5.43764 38.9742 5.43764 37.4929 5.43764C35.485 5.43764 34.5633 6.35931 34.5633 8.35077C34.5633 29.4339 34.5633 50.517 34.5633 71.6001C34.5633 73.641 35.485 74.5626 37.5258 74.5626C48.6846 74.5626 59.8433 74.5626 71.0021 74.5626C73.2075 74.5626 74.0633 73.6903 74.0633 71.4685C74.0633 50.4841 74.0633 29.5162 74.0633 8.53181C74.0633 8.26848 74.0633 8.0216 74.0633 7.75827C73.981 6.62264 73.1417 5.55285 72.006 5.48702C70.2121 5.38827 68.4181 5.4541 66.5419 5.4541C66.5419 6.62264 66.5419 7.75827 66.5419 8.87743C66.5419 10.6385 65.5544 11.5931 63.8098 11.5931C57.4898 11.5931 51.1533 11.5931 44.8333 11.5931C43.0558 11.5931 42.0848 10.622 42.0848 8.82806C42.0848 7.72535 42.0848 6.62264 42.0848 5.43764ZM29.8398 74.5626C29.774 73.1308 29.6423 71.7976 29.6423 70.4645C29.6423 58.9766 29.6423 47.4722 29.6423 35.9843V35.0626C25.6758 35.0626 21.8246 35.0626 17.9733 35.0626C14.5006 35.0626 11.0279 35.0626 7.55521 35.0626C6.23854 35.0626 5.10292 35.8526 5.02063 37.0706C4.90542 38.881 4.98771 40.6914 4.98771 42.4853C5.10292 42.5183 5.15229 42.5512 5.18521 42.5512C6.23854 42.5512 7.29188 42.5512 8.34521 42.5676C10.1392 42.5676 11.1102 43.5387 11.1102 45.3326C11.1102 51.6362 11.1102 57.9397 11.1102 64.2268C11.1102 66.0701 10.1556 67.0083 8.31229 67.0247C7.20958 67.0247 6.12333 67.0247 4.95479 67.0247C4.95479 68.6047 4.95479 70.086 4.95479 71.5672C4.95479 73.6245 5.87646 74.5462 7.90083 74.5462C14.9944 74.5462 22.0879 74.5462 29.1979 74.5462C29.4448 74.5462 29.7081 74.5462 29.8563 74.5462L29.8398 74.5626Z" fill="#231F20"/>
<path d="M42.084 5.43766C42.084 6.63911 42.084 7.74182 42.084 8.82807C42.084 10.6385 43.055 11.5931 44.8325 11.5931C51.1525 11.5931 57.489 11.5931 63.809 11.5931C65.57 11.5931 66.5246 10.6385 66.541 8.87745C66.541 7.75828 66.541 6.62266 66.541 5.45411C68.4173 5.45411 70.2113 5.38828 72.0052 5.48703C73.1244 5.55286 73.9802 6.6062 74.0625 7.75828C74.079 8.02161 74.0625 8.26849 74.0625 8.53182C74.0625 29.5162 74.0625 50.4841 74.0625 71.4685C74.0625 73.6904 73.2067 74.5626 71.0013 74.5626C59.8425 74.5626 48.6837 74.5626 37.525 74.5626C35.4842 74.5626 34.5625 73.641 34.5625 71.6001C34.5625 50.517 34.5625 29.4339 34.5625 8.35078C34.5625 6.34286 35.4842 5.43766 37.4921 5.43766C38.9898 5.43766 40.471 5.43766 42.084 5.43766Z" fill="#FFC9BD"/>
<path d="M29.839 74.5626C29.6908 74.5626 29.444 74.5626 29.1806 74.5626C22.0871 74.5626 14.9935 74.5626 7.88354 74.5626C5.84271 74.5626 4.9375 73.641 4.9375 71.5837C4.9375 70.1024 4.9375 68.6047 4.9375 67.0412C6.10604 67.0412 7.20875 67.0412 8.295 67.0412C10.1548 67.0412 11.0929 66.1031 11.0929 64.2433C11.0929 57.9397 11.0929 51.6362 11.0929 45.3491C11.0929 43.5551 10.1219 42.6006 8.32792 42.5841C7.27458 42.5841 6.22125 42.5841 5.16792 42.5676C5.11854 42.5676 5.06917 42.5347 4.97042 42.5018C4.97042 40.7079 4.88812 38.8974 5.00333 37.087C5.08562 35.8691 6.20479 35.0791 7.53792 35.0791C11.0106 35.0791 14.4833 35.0791 17.956 35.0791C21.8073 35.0791 25.6585 35.0791 29.625 35.0791V36.0008C29.625 47.4887 29.625 58.9931 29.625 70.481C29.625 71.8141 29.7567 73.1308 29.8225 74.5791L29.839 74.5626Z" fill="#FFC9BD"/>
<path d="M19.2065 14.1271C14.4006 14.3575 9.84167 18.1429 8.525 22.9652C8.22875 24.0185 8.11354 25.1377 8.04771 26.2239C7.94896 27.7875 6.96146 28.8902 5.52958 28.8737C4.09771 28.8737 3.09375 27.7381 3.09375 26.1581C3.09375 17.7973 9.41375 10.4733 17.6758 9.25539C17.9227 9.22247 18.186 9.15664 18.5646 9.09081C18.005 8.62997 17.5442 8.21851 17.0669 7.80706C15.9148 6.85247 15.7338 5.33831 16.6554 4.25206C17.5771 3.16581 19.0913 3.06706 20.2269 4.0381C22.2677 5.76622 24.2921 7.51081 26.3165 9.25539C27.6496 10.4075 27.7483 11.7571 26.6127 13.1066C24.934 15.0816 23.2552 17.0566 21.5435 19.0316C20.8687 19.8216 19.9965 20.1179 18.976 19.8216C17.9885 19.5418 17.4125 18.8671 17.1985 17.8796C17.034 17.0896 17.2808 16.4148 17.791 15.8058C18.2519 15.2627 18.6963 14.7196 19.2229 14.1106L19.2065 14.1271Z" fill="#231F20"/>
</g>
<defs>
<clipPath id="clip0_1397_28886">
<rect width="79" height="79" fill="white" transform="translate(0 0.5)"/>
</clipPath>
</defs>
</svg>
